<svg xmlns="http://www.w3.org/2000/svg" xml:space="preserve" width="240px" height="80px" version="1.1" style="shape-rendering:geometricPrecision; text-rendering:geometricPrecision; image-rendering:optimizeQuality; fill-rule:evenodd; clip-rule:evenodd" viewBox="0 0 240 80" xmlns:xlink="http://www.w3.org/1999/xlink">
<g>
<path fill="#2B3B42" d="M184.25 16.9c0,-1.63 1.32,-2.95 2.95,-2.95 1.63,0 2.95,1.32 2.95,2.95 0,1.63 -1.32,2.95 -2.95,2.95 -1.63,0 -2.95,-1.32 -2.95,-2.95zm-37.09 52.04l0 -37.67 -6.92 0c-0.41,0 -0.78,-0.17 -1.13,-0.52 -0.34,-0.34 -0.52,-0.72 -0.52,-1.12 0,-0.52 0.16,-0.93 0.48,-1.21 0.32,-0.29 0.71,-0.44 1.17,-0.44l6.92 0 0 -10.56c0,-3.41 0.91,-5.99 2.73,-7.75 1.82,-1.76 4.14,-2.64 6.97,-2.64 1.45,0 2.82,0.19 4.12,0.56 1.29,0.38 1.94,1 1.94,1.86 0,0.46 -0.17,0.87 -0.52,1.22 -0.34,0.34 -0.72,0.52 -1.12,0.52 -0.46,0 -1.07,-0.15 -1.82,-0.44 -1.33,-0.4 -2.31,-0.6 -2.94,-0.6 -1.79,0 -3.22,0.6 -4.29,1.81 -1.07,1.22 -1.6,3.03 -1.6,5.46l0 10.56 10.22 0c0.46,0 0.85,0.16 1.16,0.48 0.32,0.32 0.48,0.71 0.48,1.17 0,0.46 -0.16,0.85 -0.48,1.17 -0.31,0.32 -0.7,0.47 -1.16,0.47l-10.22 0 0 37.67c0,0.46 -0.17,0.87 -0.52,1.21 -0.35,0.35 -0.75,0.52 -1.21,0.52 -0.52,0 -0.94,-0.17 -1.26,-0.52 -0.32,-0.34 -0.48,-0.75 -0.48,-1.21zm22.73 0l0 -60.61c0,-0.46 0.17,-0.87 0.52,-1.21 0.34,-0.35 0.75,-0.52 1.21,-0.52 0.52,0 0.94,0.17 1.26,0.52 0.31,0.34 0.47,0.75 0.47,1.21l0 60.61c0,0.46 -0.17,0.87 -0.52,1.21 -0.34,0.35 -0.75,0.52 -1.21,0.52 -0.52,0 -0.94,-0.17 -1.25,-0.52 -0.32,-0.34 -0.48,-0.75 -0.48,-1.21zm15.62 0l0 -41.13c0,-0.46 0.17,-0.87 0.52,-1.21 0.35,-0.35 0.75,-0.52 1.21,-0.52 0.52,0 0.94,0.17 1.26,0.52 0.32,0.34 0.47,0.75 0.47,1.21l0 41.13c0,0.46 -0.17,0.87 -0.51,1.21 -0.35,0.35 -0.76,0.52 -1.22,0.52 -0.52,0 -0.93,-0.17 -1.25,-0.52 -0.32,-0.34 -0.48,-0.75 -0.48,-1.21zm11.99 -0.61l14.89 -19.31 -15.07 -19.65c-0.23,-0.29 -0.34,-0.64 -0.34,-1.04 0,-0.52 0.19,-0.95 0.56,-1.3 0.38,-0.35 0.8,-0.52 1.26,-0.52 0.57,0 1.04,0.26 1.38,0.78l14.38 18.79 14.11 -18.79c0.46,-0.52 0.95,-0.78 1.47,-0.78 0.52,0 0.93,0.15 1.21,0.43 0.29,0.29 0.44,0.64 0.44,1.04 0,0.35 -0.15,0.72 -0.44,1.13l-14.72 19.74 14.81 19.4c0.23,0.29 0.35,0.63 0.35,1.04 0,0.46 -0.16,0.86 -0.48,1.21 -0.32,0.35 -0.71,0.52 -1.17,0.52 -0.52,0 -1.01,-0.26 -1.47,-0.78l-14.2 -18.53 -14.29 18.62c-0.34,0.46 -0.81,0.69 -1.38,0.69 -0.46,0 -0.85,-0.15 -1.17,-0.43 -0.32,-0.29 -0.48,-0.7 -0.48,-1.22 0,-0.4 0.12,-0.75 0.35,-1.04z"/>
<path fill="#32c682" d="M92.85 48.81c0,-10.74 -8.71,-19.44 -19.44,-19.44 -10.74,0 -19.44,8.7 -19.44,19.44 0,10.73 8.7,19.44 19.44,19.44 10.73,0 19.44,-8.71 19.44,-19.44zm-42.17 0c0,-12.56 10.18,-22.73 22.73,-22.73 12.55,0 22.73,10.17 22.73,22.73 0,12.55 -10.18,22.73 -22.73,22.73 -12.55,0 -22.73,-10.18 -22.73,-22.73zm55.89 12.6l0 -31 -7.1 0c-0.41,0 -0.78,-0.18 -1.13,-0.52 -0.35,-0.35 -0.52,-0.72 -0.52,-1.13 0,-0.46 0.16,-0.85 0.48,-1.17 0.31,-0.31 0.7,-0.47 1.17,-0.47l7.1 0 0 -11c0,-0.46 0.17,-0.87 0.52,-1.21 0.34,-0.35 0.75,-0.52 1.21,-0.52 0.52,0 0.94,0.17 1.25,0.52 0.32,0.34 0.48,0.75 0.48,1.21l0 11 9.52 0c0.41,0 0.78,0.17 1.13,0.52 0.35,0.34 0.52,0.72 0.52,1.12 0,0.46 -0.16,0.85 -0.48,1.17 -0.31,0.32 -0.7,0.48 -1.17,0.48l-9.52 0 0 30.82c0,2.54 0.45,4.23 1.34,5.07 0.9,0.84 2.04,1.25 3.42,1.25 0.23,0 0.57,-0.05 1,-0.17 0.43,-0.11 0.79,-0.17 1.08,-0.17 0.41,0 0.75,0.16 1.04,0.47 0.29,0.32 0.43,0.68 0.43,1.09 0,0.52 -0.34,0.96 -1.04,1.34 -0.69,0.37 -1.5,0.56 -2.42,0.56 -1.44,0 -2.66,-0.1 -3.64,-0.3 -0.98,-0.2 -2,-0.98 -3.07,-2.34 -1.07,-1.36 -1.6,-3.56 -1.6,-6.62zm21.6 7.53l0 -41.13c0,-0.46 0.17,-0.87 0.51,-1.21 0.35,-0.35 0.75,-0.52 1.22,-0.52 0.52,0 0.93,0.17 1.25,0.52 0.32,0.34 0.48,0.75 0.48,1.21l0 41.13c0,0.46 -0.18,0.87 -0.52,1.21 -0.35,0.35 -0.75,0.52 -1.21,0.52 -0.52,0 -0.94,-0.17 -1.26,-0.52 -0.32,-0.34 -0.47,-0.75 -0.47,-1.21zm-100.3 -42.86c5.14,0 9,1.51 11.6,4.54 2.6,3.03 3.9,6.97 3.9,11.82l0 26.5c0,0.46 -0.17,0.87 -0.52,1.21 -0.35,0.35 -0.75,0.52 -1.21,0.52 -0.52,0 -0.94,-0.17 -1.26,-0.52 -0.32,-0.34 -0.47,-0.75 -0.47,-1.21l0 -26.15c0,-3.93 -1.03,-7.14 -3.08,-9.66 -2.05,-2.51 -5.15,-3.76 -9.31,-3.76 -1.16,0 -2.3,0 -3.46,0 -4.16,0 -7.26,1.25 -9.31,3.76 -2.05,2.52 -3.07,5.73 -3.07,9.66l0 26.15c0,0.46 -0.16,0.87 -0.48,1.21 -0.32,0.35 -0.74,0.52 -1.26,0.52 -0.46,0 -0.86,-0.17 -1.21,-0.52 -0.34,-0.34 -0.52,-0.75 -0.52,-1.21l0 -26.5c0,-4.85 1.3,-8.79 3.9,-11.82 2.6,-3.03 6.47,-4.54 11.6,-4.54 1.39,0 2.77,0 4.16,0zm-2.08 37.79c1.88,0 3.4,1.52 3.4,3.4 0,1.88 -1.52,3.4 -3.4,3.4 -1.88,0 -3.4,-1.52 -3.4,-3.4 0,-1.88 1.52,-3.4 3.4,-3.4zm101.11 -46.97c0,-1.63 1.32,-2.95 2.95,-2.95 1.63,0 2.95,1.32 2.95,2.95 0,1.63 -1.32,2.95 -2.95,2.95 -1.63,0 -2.95,-1.32 -2.95,-2.95z"/>
</g>
</svg>
